:SAMPLES-PER-SECOND 30
:FULLY-SPECIFIED
:DEGREES
726
root  -51.7546 39.8726 0.553957 -6.1528 20.8212 0.820618
RightUpLeg  -16.3602 -3.57582 -4.0962
RightLeg  24.2069 -1.29724 -0.853542
RightFoot  -4.9408 -0.370817 6.02693
RightToes  5.47152e-009 0 -3.6325e-017
Spine  9.86633 -2.21692 -5.6036
Spine1  11.8376 -3.6171 1.61398
HEad  -14.3214 -2.49536 0.0956661
LeftShoulder1  0.264068 2.80175 -31.4706
LeftArm  38.0479 -15.5705 -64.2445
LeftForeArm  17.0402 -31.634 -5.98706
LeftHand  -0.0798754 0.499959 1.85565
RightShoulder  -0.385722 -4.65127 26.6073
RightArm  13.7963 4.36736 53.7344
RightForeArm  -2.51329 18.4844 5.11701
RightHand  -0.580091 3.03794 -8.21306
LeftUpLeg  5.37722 6.42082 -5.42798
LeftLeg  12.3315 1.87354 -0.729007
LeftFoot  -12.2733 0.136129 7.63211
LeftToes  -4.29285e-010 1.49941e-010 2.15559e-012
727
root  -51.2381 39.8211 1.0919 -5.82983 24.2878 0.808899
RightUpLeg  -16.7127 -2.96987 -2.80449
RightLeg  17.0889 -0.028251 -0.238481
RightFoot  -4.55358 -0.372443 5.75076
RightToes  5.47152e-009 0 -3.6325e-017
Spine  9.71488 -2.29937 -4.87214
Spine1  11.9171 -3.49416 1.46756
HEad  -14.1507 -0.0739249 -1.26816
LeftShoulder1  0.313412 2.68279 -32.0654
LeftArm  37.7396 -15.0233 -63.1265
LeftForeArm  15.5852 -31.342 -5.99955
LeftHand  -0.0922774 0.781856 2.24438
RightShoulder  -0.309425 -4.42696 26.3469
RightArm  15.7293 4.17793 54.9319
RightForeArm  0.426618 21.117 4.82367
RightHand  -0.509667 3.19114 -7.12669
LeftUpLeg  6.34351 6.17248 -5.70544
LeftLeg  12.121 -1.10207 -1.16083
LeftFoot  -12.9173 0.193092 8.35673
LeftToes  -4.29285e-010 1.49941e-010 2.15559e-012
728
root  -50.6656 39.7496 1.71806 -5.52905 27.8008 0.862671
RightUpLeg  -16.3164 -2.25024 -2.01893
RightLeg  9.18376 1.8656 -0.122434
RightFoot  -4.22608 -0.44564 6.68834
RightToes  5.47152e-009 0 -3.6325e-017
Spine  8.89927 -2.53062 -3.9882
Spine1  12.9261 -3.44034 0.903785
HEad  -13.971 2.02299 -2.76076
LeftShoulder1  0.246702 2.85109 -31.6987
LeftArm  36.8749 -14.6864 -62.5518
LeftForeArm  14.9424 -29.6287 -5.61819
LeftHand  -0.0791447 1.38677 2.10757
RightShoulder  -0.308446 -4.41418 26.5932
RightArm  17.4887 4.47183 55.3224
RightForeArm  4.27136 23.7194 4.84312
RightHand  -0.503177 3.06577 -7.13541
LeftUpLeg  7.64871 5.90056 -5.98607
LeftLeg  11.87 -4.15583 -1.45385
LeftFoot  -13.6529 0.267639 9.16783
LeftToes  -4.29285e-010 1.49941e-010 2.15559e-012
729
root  -50.0209 39.6432 2.42974 -5.72165 31.2252 0.92868
RightUpLeg  -15.038 -3.22612 -1.31822
RightLeg  1.77449 5.54958 -0.337778
RightFoot  -3.67227 -0.592991 8.44805
RightToes  5.47152e-009 0 -3.6325e-017
Spine  8.33082 -2.4125 -3.22028
Spine1  13.9404 -3.29272 1.069
HEad  -13.9993 3.86013 -3.7103
LeftShoulder1  0.294305 2.72866 -31.872
LeftArm  37.1334 -14.4142 -61.1015
LeftForeArm  12.468 -27.3797 -5.18946
LeftHand  -0.0750981 1.91224 2.21862
RightShoulder  -0.457004 -4.8493 27.0663
RightArm  17.235 4.43568 54.6161
RightForeArm  7.84943 26.0403 5.17598
RightHand  -0.5245 2.90777 -7.55042
LeftUpLeg  9.80358 5.80643 -6.07628
LeftLeg  11.4857 -7.24132 -1.6252
LeftFoot  -14.5933 0.365383 9.75536
LeftToes  -4.29285e-010 1.49941e-010 2.15559e-012
730
root  -49.3459 39.467 3.22744 -5.58386 34.3938 1.1362
RightUpLeg  -14.5969 -3.16768 -1.0965
RightLeg  -2.23433 8.84794 -0.894346
RightFoot  -3.32554 -0.735289 10.1616
RightToes  5.47152e-009 0 -3.6325e-017
Spine  7.69371 -2.30448 -2.60393
Spine1  14.4477 -3.15349 1.19789
HEad  -14.3015 6.17734 -4.09244
LeftShoulder1  0.268202 2.80373 -32.1953
LeftArm  37.3656 -14.208 -59.3198
LeftForeArm  9.2765 -23.8734 -4.85909
LeftHand  -0.0900722 2.37355 3.0354
RightShoulder  -0.383338 -4.65106 26.4094
RightArm  16.357 3.5931 54.3182
RightForeArm  8.60207 27.571 5.48647
RightHand  -0.603065 2.92049 -8.64298
LeftUpLeg  11.5166 5.65623 -6.14924
LeftLeg  11.7977 -10.026 -1.79049
LeftFoot  -15.8501 0.499422 10.2228
LeftToes  -4.29285e-010 1.49941e-010 2.15559e-012
731
root  -48.6249 39.2279 4.06961 -5.39261 37.2139 1.25345
RightUpLeg  -14.8232 -3.07392 -0.919524
RightLeg  -1.78968 10.6977 -0.852109
RightFoot  -3.5549 -0.788736 11.0984
RightToes  5.47152e-009 0 -3.6325e-017
Spine  7.24586 -2.2282 -1.87302
Spine1  14.5958 -2.99321 1.08895
HEad  -14.5592 9.28451 -4.97452
LeftShoulder1  0.197442 2.98528 -31.9929
LeftArm  31.5266 -13.6246 -57.2612
LeftForeArm  11.6702 -19.5125 -6.49843
LeftHand  -0.0935428 2.75054 3.51789
RightShoulder  -0.47638 -4.91248 26.9527
RightArm  16.8319 3.54603 52.8446
RightForeArm  8.20464 27.6212 5.52051
RightHand  -0.541148 3.46668 -7.34419
LeftUpLeg  12.894 5.41461 -6.05929
LeftLeg  12.8606 -12.4274 -2.06236
LeftFoot  -17.4147 0.686987 10.9223
LeftToes  -4.29285e-010 1.49941e-010 2.15559e-012
732
root  -47.8694 38.9936 4.95083 -5.64682 39.6597 0.727844
RightUpLeg  -15.1528 -2.58671 -0.190154
RightLeg  1.75861 10.7343 -0.137395
RightFoot  -2.02482 -0.764174 9.53767
RightToes  5.47152e-009 0 -3.6325e-017
Spine  6.91529 -2.16744 -0.738933
Spine1  14.8119 -2.94793 1.24791
HEad  -15.2963 11.1704 -5.71643
LeftShoulder1  0.0967807 3.2521 -32.3123
LeftArm  17.2367 -13.272 -53.9203
LeftForeArm  21.9461 -13.723 -9.90135
LeftHand  -0.0503338 4.0528 2.69716
RightShoulder  -0.55005 -5.12412 27.1717
RightArm  17.8417 3.68113 51.6952
RightForeArm  6.11375 26.3035 5.32199
RightHand  -0.521467 4.13865 -6.61375
LeftUpLeg  14.2663 4.58573 -5.64505
LeftLeg  14.1365 -13.7748 -2.07872
LeftFoot  -18.9886 0.881236 11.442
LeftToes  -4.29285e-010 1.49941e-010 2.15559e-012
733
root  -47.1056 38.9512 5.80951 -6.41486 42.165 -0.716339
RightUpLeg  -15.7044 -1.64273 1.1385
RightLeg  5.57965 11.6211 0.260573
RightFoot  3.38801 -0.446668 3.60146
RightToes  5.47152e-009 0 -3.6325e-017
Spine  6.57302 -2.21089 1.34438
Spine1  15.1629 -3.1168 1.99069
HEad  -16.2761 12.8164 -6.43595
LeftShoulder1  0.104449 3.23467 -32.6922
LeftArm  4.98228 -11.9141 -50.0993
LeftForeArm  29.1156 -8.83026 -10.7658
LeftHand  -0.0405755 4.49738 2.33173
RightShoulder  -0.539614 -5.1037 26.9398
RightArm  18.701 3.51929 50.8319
RightForeArm  3.64487 23.7161 4.92021
RightHand  -0.514917 3.87466 -6.70968
LeftUpLeg  15.9254 2.06525 -4.97146
LeftLeg  14.2236 -13.4358 -1.86952
LeftFoot  -19.26 0.907091 11.3884
LeftToes  -4.29285e-010 1.49941e-010 2.15559e-012
734
root  -46.2768 38.8852 6.66866 -7.31717 44.9598 -2.0968
RightUpLeg  -16.1383 -0.957075 1.41185
RightLeg  9.27096 9.89057 0.615502
RightFoot  8.28396 -0.274834 1.85314
RightToes  5.47152e-009 0 -3.6325e-017
Spine  6.82222 -2.68482 3.90989
Spine1  14.7224 -3.32479 1.66859
HEad  -16.8485 14.2412 -7.32002
LeftShoulder1  0.12646 3.1772 -32.5936
LeftArm  -1.644 -9.99117 -46.3896
LeftForeArm  30.1075 -5.82736 -10.0284
LeftHand  -0.0226422 5.5102 2.51931
RightShoulder  -0.512771 -5.01656 27.0536
RightArm  18.2892 3.22613 49.8908
RightForeArm  3.20009 20.1869 4.85343
RightHand  -0.496406 3.62666 -6.6429
LeftUpLeg  16.88 -2.61311 -5.06918
LeftLeg  16.0351 -11.1724 -2.32584
LeftFoot  -19.3181 0.866094 10.7325
LeftToes  -4.29285e-010 1.49941e-010 2.15559e-012
735
root  -45.4013 38.8071 7.59097 -8.23376 46.4079 -3.78799
RightUpLeg  -16.8845 -0.554388 1.75198
RightLeg  14.3437 7.90951 1.75664
RightFoot  5.96799 -0.150133 1.25805
RightToes  5.47152e-009 0 -3.6325e-017
Spine  6.64476 -2.53958 7.25636
Spine1  14.4029 -2.60761 0.67908
HEad  -17.3795 14.5185 -8.22396
LeftShoulder1  0.0841557 3.28583 -32.6165
LeftArm  -3.2765 -7.91985 -42.8567
LeftForeArm  26.6983 -4.81828 -9.45875
LeftHand  -0.00148824 6.27321 3.92719
RightShoulder  -0.60494 -5.27072 27.5055
RightArm  16.0219 3.36539 48.4994
RightForeArm  4.64026 15.3626 5.76777
RightHand  -0.43448 3.32176 -6.00461
LeftUpLeg  16.3957 -5.21203 -4.04325
LeftLeg  20.4515 -10.4274 -4.06935
LeftFoot  -18.7884 0.706014 9.11203
LeftToes  -4.29285e-010 1.49941e-010 2.15559e-012
736
root  -44.6052 38.825 8.46809 -8.63455 48.382 -5.22168
RightUpLeg  -16.9435 -1.73286 2.29011
RightLeg  17.2039 7.01645 2.12695
RightFoot  3.40507 -0.06926 0.704956
RightToes  5.47152e-009 0 -3.6325e-017
Spine  6.3828 -2.65129 9.49326
Spine1  13.9479 -2.43053 0.644487
HEad  -17.6872 15.9849 -9.31125
LeftShoulder1  -0.0180831 3.55011 -32.7583
LeftArm  -3.91406 -5.76689 -39.2392
LeftForeArm  23.4313 -4.47312 -9.1449
LeftHand  -0.0177332 5.58608 4.52725
RightShoulder  -0.496301 -4.96176 27.1997
RightArm  11.7806 3.27269 48.1252
RightForeArm  8.36993 9.69172 6.51161
RightHand  -0.325635 2.20697 -5.21996
LeftUpLeg  13.7258 -4.3067 -1.4126
LeftLeg  27.498 -13.986 -7.51773
LeftFoot  -15.9758 0.365382 6.72683
LeftToes  -4.29285e-010 1.49941e-010 2.15559e-012
